<?xml version="1.0" encoding="utf-8"?>
<!-- Generator: Adobe Illustrator 18.0.0, SVG Export Plug-In . SVG Version: 6.00 Build 0)  -->
<!DOCTYPE svg PUBLIC "-//W3C//DTD SVG 1.1//EN" "http://www.w3.org/Graphics/SVG/1.1/DTD/svg11.dtd">
<svg version="1.1" id="Layer_1" xmlns="http://www.w3.org/2000/svg" xmlns:xlink="http://www.w3.org/1999/xlink" x="0px" y="0px"
	 viewBox="0 0 200 50" enable-background="new 0 0 200 50" xml:space="preserve">
<g>
	<g>
		<path d="M34.1,31.9c0,10.1-7.4,17.8-17,17.8C7.6,49.8,0,42.2,0,31.9c0-10.1,7.6-17.7,16.9-17.7c4.7,0,9,2.2,11.7,5.7V0h5.4V31.9z
			 M17.1,19.4c-6.3,0-11.5,5.5-11.5,12.6c0,7.2,5.1,12.7,11.5,12.7c6.2,0,11.5-5.7,11.5-12.7C28.5,25,23.3,19.4,17.1,19.4z"/>
		<path fill="#FFD537" d="M47.8,49h-5.6V15.1h5.6V49z"/>
		<path fill="#FFD537" d="M62.5,49h-5.6V15.1h5.6V49z"/>
		<path d="M77.2,49h-5.5V28.4c0-8.6,6.1-14.2,14.2-14.2c8.1,0,14.1,5.6,14.1,14.2V49h-5.5V28.2c0-5.1-3.4-8.8-8.6-8.8
			c-5.3,0-8.6,3.7-8.6,8.8V49z"/>
		<path d="M114.2,49h-5.5V28.4c0-8.6,6.1-14.2,14.2-14.2c8.1,0,14.1,5.6,14.1,14.2V49h-5.5V28.2c0-5.1-3.4-8.8-8.6-8.8
			c-5.3,0-8.6,3.7-8.6,8.8V49z"/>
		<path d="M177.1,38.5c-2.6,7.2-8.3,11.3-16.1,11.3c-9.7,0-17.4-7.8-17.4-17.7c0-9.8,7.6-17.8,17.1-17.8c7.4,0,14.6,5.1,16.5,14
			l-26,11c2.2,3.4,5.9,5.3,9.8,5.3c4.8,0,8.2-2.1,10.3-6.1H177.1z M149.3,34.3l20.9-8.8c-2.1-3.7-5.9-6-9.7-6
			c-5.4,0-11.5,4.7-11.5,12.5C149.1,32.9,149.2,33.6,149.3,34.3z"/>
		<path d="M200.1,14.4v5.2c-6.5-0.6-10.7,2.6-10.7,9.1V49h-5.5V28.8C183.9,18.6,191.2,13.4,200.1,14.4z"/>
	</g>
	<circle fill="#FFD537" cx="44.7" cy="7.2" r="3.8"/>
	<circle fill="#FFD537" cx="59.4" cy="7.2" r="3.8"/>
</g>
</svg>
