<?xml version="1.0" encoding="utf-8"?>
<!-- Generator: Adobe Illustrator 18.0.0, SVG Export Plug-In . SVG Version: 6.00 Build 0)  -->
<!DOCTYPE svg PUBLIC "-//W3C//DTD SVG 1.1//EN" "http://www.w3.org/Graphics/SVG/1.1/DTD/svg11.dtd">
<svg version="1.1" id="Layer_1" xmlns="http://www.w3.org/2000/svg" xmlns:xlink="http://www.w3.org/1999/xlink" x="0px" y="0px"
	 viewBox="0 0 1440 500" enable-background="new 0 0 1440 500" xml:space="preserve">
<g>
	<g>
		<ellipse fill="#FFFFFF" cx="713.5" cy="127.9" rx="103.8" ry="107.8"/>
		
			<image overflow="visible" enable-background="new    " width="700" height="700" xlink:href="ECDC1DF5B638C714.png"  transform="matrix(0.2804 0 0 0.2857 615.3939 27.9042)">
		</image>
		<g>
			<ellipse fill="#FFFFFF" cx="782.1" cy="221.4" rx="34.6" ry="35.9"/>
			<text transform="matrix(0.9639 0 0 1 772.9335 231.605)" font-family="'ProximaNova-Light'" font-size="32.6864">2</text>
		</g>
	</g>
	<rect x="575.8" y="299.6" fill="none" width="288.4" height="169.8"/>
	<text transform="matrix(0.9639 0 0 1 584.6161 317.0858)" fill="#F1F2F2" font-family="'ProximaNova-Light'" font-size="26.1492">Solo tienes que decirnos </text>
	<text transform="matrix(0.9639 0 0 1 637.6303 348.4706)" fill="#F1F2F2" font-family="'ProximaNova-Light'" font-size="26.1492">cuándo, dónde </text>
	<text transform="matrix(0.9639 0 0 1 625.9893 379.8554)" fill="#F1F2F2" font-family="'ProximaNova-Light'" font-size="26.1492">y tu presupuesto. </text>
	<text transform="matrix(0.9639 0 0 1 612.1982 411.2402)" fill="#F1F2F2" font-family="'ProximaNova-Light'" font-size="26.1492">Puedes venir solo o </text>
	<text transform="matrix(0.9639 0 0 1 648.6039 442.6249)" fill="#F1F2F2" font-family="'ProximaNova-Light'" font-size="26.1492">acompañado.</text>
</g>
<g>
	<g>
		<ellipse fill="#FFFFFF" cx="340.8" cy="127.9" rx="103.8" ry="107.8"/>
		
			<image overflow="visible" enable-background="new    " width="800" height="800" xlink:href="ECDC1DF5B638C713.png"  transform="matrix(0.2453 0 0 0.25 243.1382 27.4627)">
		</image>
		<g>
			<ellipse fill="#FFFFFF" cx="408.6" cy="223.5" rx="34.6" ry="35.9"/>
			<text transform="matrix(0.9639 0 0 1 403.7578 234.4447)" font-family="'ProximaNova-Light'" font-size="32.6864">1</text>
		</g>
	</g>
	<rect x="196.9" y="296.9" fill="none" width="288.4" height="108.3"/>
	<text transform="matrix(0.9639 0 0 1 225.7724 314.4024)" fill="#F1F2F2" font-family="'ProximaNova-Light'" font-size="26.1492">¿Te apetece conocer </text>
	<text transform="matrix(0.9639 0 0 1 204.0474 345.7871)" fill="#F1F2F2" font-family="'ProximaNova-Light'" font-size="26.1492">gente disfrutando de una </text>
	<text transform="matrix(0.9639 0 0 1 270.7793 377.1719)" fill="#F1F2F2" font-family="'ProximaNova-Light'" font-size="26.1492">buena cena?</text>
</g>
<g>
	<g>
		<ellipse fill="#FFFFFF" cx="1077.3" cy="127.9" rx="103.8" ry="107.8"/>
		
			<image overflow="visible" enable-background="new    " width="700" height="700" xlink:href="ECDC1DF5B638C71C.png"  transform="matrix(0.2804 0 0 0.2857 979.2038 27.9042)">
		</image>
		<g>
			<ellipse fill="#FFFFFF" cx="1138.3" cy="227.5" rx="34.6" ry="35.9"/>
			<text transform="matrix(0.9639 0 0 1 1129.7605 237.7178)" font-family="'ProximaNova-Light'" font-size="32.6864">3</text>
		</g>
	</g>
	<rect x="947" y="300.8" fill="none" width="288.4" height="169.8"/>
	<text transform="matrix(0.9639 0 0 1 948.041 318.2314)" fill="#F1F2F2" font-family="'ProximaNova-Light'" font-size="26.1492">Nosotros nos encargamos </text>
	<text transform="matrix(0.9639 0 0 1 955.3076 349.6161)" fill="#F1F2F2" font-family="'ProximaNova-Light'" font-size="26.1492">de encontrar los mejores </text>
	<text transform="matrix(0.9639 0 0 1 963.537 381.001)" fill="#F1F2F2" font-family="'ProximaNova-Light'" font-size="26.1492">compañeros de mesa y </text>
	<text transform="matrix(0.9639 0 0 1 1020.9267 412.3857)" fill="#F1F2F2" font-family="'ProximaNova-Light'" font-size="26.1492">restaurantes.</text>
</g>
<polygon fill="#F1F2F2" points="858.3,296.8 880.9,296.8 880.9,296.8 "/>
<line fill="none" stroke="#F1F2F2" stroke-width="2" stroke-miterlimit="10" x1="904.4" y1="25" x2="904.4" y2="481.8"/>
<line fill="none" stroke="#F1F2F2" stroke-width="2" stroke-miterlimit="10" x1="521.5" y1="21.6" x2="521.5" y2="478.5"/>
<line fill="none" stroke="#FACC3B" stroke-width="3" stroke-miterlimit="10" x1="866.8" y1="-289.9" x2="865.3" y2="-289.9"/>
</svg>
